<svg width="70" height="72" viewBox="0 0 70 72" fill="none" xmlns="http://www.w3.org/2000/svg">
<path d="M49.7 9.33332C56.1667 9.33332 61.3667 14.5667 61.3667 21C61.3667 27.3 56.3667 32.4333 50.1333 32.6667C49.8454 32.6333 49.5546 32.6333 49.2667 32.6667M56.1333 62.6667C58.5333 62.1667 60.8 61.2 62.6667 59.7667C67.8667 55.8667 67.8667 49.4333 62.6667 45.5333C60.8333 44.1333 58.6 43.2 56.2333 42.6667M25.5333 32.2333C25.2 32.2 24.8 32.2 24.4333 32.2333C20.6073 32.1034 16.9821 30.4894 14.3254 27.7332C11.6687 24.9769 10.1891 21.2948 10.2 17.4667C10.2 9.29999 16.8 2.66665 25 2.66665C28.9208 2.59593 32.7091 4.08563 35.5315 6.80803C38.3539 9.53043 39.9793 13.2625 40.05 17.1833C40.1207 21.1041 38.631 24.8924 35.9086 27.7148C33.1862 30.5372 29.4541 32.1626 25.5333 32.2333ZM8.86667 44.5333C0.799999 49.9333 0.799999 58.7333 8.86667 64.1C18.0333 70.2333 33.0667 70.2333 42.2333 64.1C50.3 58.7 50.3 49.9 42.2333 44.5333C33.1 38.4333 18.0667 38.4333 8.86667 44.5333Z" stroke="white" stroke-width="5" stroke-linecap="round" stroke-linejoin="round"/>
</svg>
