<svg width="72" height="72" viewBox="0 0 72 72" fill="none" xmlns="http://www.w3.org/2000/svg">
<path d="M69.2333 57.1C69.2333 58.3 68.9667 59.5334 68.4 60.7334C67.8333 61.9334 67.1 63.0667 66.1333 64.1334C64.5 65.9334 62.7 67.2334 60.6667 68.0667C58.6667 68.9 56.5 69.3334 54.1667 69.3334C50.7667 69.3334 47.1333 68.5334 43.3 66.9C39.4667 65.2667 35.6333 63.0667 31.8333 60.3C27.9604 57.467 24.3056 54.3471 20.9 50.9667C17.5292 47.5734 14.4203 43.9296 11.6 40.0667C8.86667 36.2667 6.66667 32.4667 5.06667 28.7C3.46667 24.9 2.66667 21.2667 2.66667 17.8C2.66667 15.5334 3.06667 13.3667 3.86667 11.3667C4.66667 9.33335 5.93334 7.46669 7.70001 5.80002C9.83334 3.70002 12.1667 2.66669 14.6333 2.66669C15.5667 2.66669 16.5 2.86669 17.3333 3.26669C18.2 3.66669 18.9667 4.26669 19.5667 5.13335L27.3 16.0334C27.9 16.8667 28.3333 17.6334 28.6333 18.3667C28.9333 19.0667 29.1 19.7667 29.1 20.4C29.1 21.2 28.8667 22 28.4 22.7667C27.9667 23.5334 27.3333 24.3334 26.5333 25.1334L24 27.7667C23.6333 28.1334 23.4667 28.5667 23.4667 29.1C23.4667 29.3667 23.5 29.6 23.5667 29.8667C23.6667 30.1334 23.7667 30.3334 23.8333 30.5334C24.4333 31.6334 25.4667 33.0667 26.9333 34.8C28.4333 36.5334 30.0333 38.3 31.7667 40.0667C33.5667 41.8334 35.3 43.4667 37.0667 44.9667C38.8 46.4334 40.2333 47.4334 41.3667 48.0334C41.5333 48.1 41.7333 48.2 41.9667 48.3C42.2333 48.4 42.5 48.4334 42.8 48.4334C43.3667 48.4334 43.8 48.2334 44.1667 47.8667L46.7 45.3667C47.5333 44.5334 48.3333 43.9 49.1 43.5C49.8667 43.0334 50.6333 42.8 51.4667 42.8C52.1 42.8 52.7667 42.9334 53.5 43.2334C54.2333 43.5334 55 43.9667 55.8333 44.5334L66.8667 52.3667C67.7333 52.9667 68.3333 53.6667 68.7 54.5C69.0333 55.3333 69.2333 56.1667 69.2333 57.1Z" stroke="white" stroke-width="5" stroke-miterlimit="10"/>
</svg>
