<svg width="80" height="80" viewBox="0 0 80 80" fill="none" xmlns="http://www.w3.org/2000/svg">
<path d="M73.3333 30V50C73.3333 58.3334 71.6667 64.1667 67.9333 67.9334L46.6667 46.6667L72.4333 20.9C73.0333 23.5334 73.3333 26.5334 73.3333 30Z" stroke="white" stroke-width="5" stroke-linecap="round" stroke-linejoin="round"/>
<path d="M72.4333 20.9L20.9 72.4334C10.8667 70.1334 6.66666 63.2 6.66666 50V30C6.66666 13.3334 13.3333 6.66669 30 6.66669H50C63.2 6.66669 70.1333 10.8667 72.4333 20.9Z" stroke="white" stroke-width="5" stroke-linecap="round" stroke-linejoin="round"/>
<path d="M67.9333 67.9334C64.1667 71.6667 58.3333 73.3334 50 73.3334H30C26.5333 73.3334 23.5333 73.0334 20.9 72.4334L46.6667 46.6667L67.9333 67.9334Z" stroke="white" stroke-width="5" stroke-linecap="round" stroke-linejoin="round"/>
<path d="M20.8 26.6C23.0667 16.8334 37.7333 16.8334 40 26.6C41.3 32.3334 37.7 37.2 34.5333 40.2C33.4181 41.2599 31.9385 41.8508 30.4 41.8508C28.8615 41.8508 27.3818 41.2599 26.2667 40.2C23.1 37.2 19.4667 32.3334 20.8 26.6Z" stroke="white" stroke-width="5"/>
<path d="M30.3167 29H30.3467" stroke="white" stroke-width="6.66667" stroke-linecap="round" stroke-linejoin="round"/>
</svg>
