<svg width="50" height="50" viewBox="0 0 50 50" fill="none" xmlns="http://www.w3.org/2000/svg">
<path d="M29.1667 19.375V25.4167H34.5833C35 25.4167 35.2083 25.8333 35.2083 26.25L34.375 30.2083C34.375 30.4167 33.9583 30.625 33.75 30.625H29.1667V45.8333H22.9167V30.8333H19.375C18.9583 30.8333 18.75 30.625 18.75 30.2083V26.25C18.75 25.8333 18.9583 25.625 19.375 25.625H22.9167V18.75C22.9167 15.2083 25.625 12.5 29.1667 12.5H34.7917C35.2083 12.5 35.4167 12.7083 35.4167 13.125V18.125C35.4167 18.5417 35.2083 18.75 34.7917 18.75H29.7917C29.375 18.75 29.1667 18.9583 29.1667 19.375Z" stroke="black" stroke-width="3.125" stroke-miterlimit="10" stroke-linecap="round"/>
<path d="M31.25 45.8334H18.75C8.33333 45.8334 4.16666 41.6667 4.16666 31.2501V18.7501C4.16666 8.33341 8.33333 4.16675 18.75 4.16675H31.25C41.6667 4.16675 45.8333 8.33341 45.8333 18.7501V31.2501C45.8333 41.6667 41.6667 45.8334 31.25 45.8334Z" stroke="black" stroke-width="3.125" stroke-linecap="round" stroke-linejoin="round"/>
</svg>
