<svg width="91" height="80" viewBox="0 0 91 80" fill="none" xmlns="http://www.w3.org/2000/svg">
<path d="M49.4131 4.76467L63.3597 21.9873M49.4131 4.76467L51.6111 2.98475C53.4405 1.50335 56.1244 1.78544 57.6058 3.61482L66.1878 14.2127C67.6692 16.0421 67.3871 18.726 65.5578 20.2074L63.3597 21.9873M49.4131 4.76467L20.5068 28.1725L21.3607 29.2271M63.3597 21.9873C63.3597 21.9873 59.2746 25.2954 56.657 27.4151M21.3607 29.2271L11.5449 37.1758C10.0105 38.4183 9.56462 40.5068 10.3349 42.2275M21.3607 29.2271L33.5988 44.3399M33.5988 44.3399L34.4534 45.3952L35.53 44.5234M33.5988 44.3399L32.8923 44.912L23.783 52.2886C22.2489 53.5309 20.1138 53.533 18.5909 52.4225M10.3349 42.2275C10.4829 42.5583 10.6759 42.8755 10.9148 43.1705L11.8493 44.3244M10.3349 42.2275L8.32514 43.8549L10.9067 47.0429M18.5909 52.4225C18.2978 52.2087 18.0274 51.9538 17.7883 51.6585L17.1839 50.9121M18.5909 52.4225L16.581 54.0501L14.2898 51.2207M10.9067 47.0429L2.06448 54.2031L5.44762 58.381L14.2898 51.2207M10.9067 47.0429L14.2898 51.2207M49.6169 44.3662L42.506 38.8744M49.6169 44.3662C49.6169 44.3662 55.5311 50.4146 58.3278 55.264C61.1245 60.1134 60.757 59.1026 61.6523 61.2696M49.6169 44.3662L43.6413 49.2052M56.657 27.4151C50.5444 32.365 42.506 38.8744 42.506 38.8744M56.657 27.4151C55.4589 29.2997 55.2613 31.0252 58.7102 33.5888C62.1591 36.1524 64.4812 38.9145 67.4718 42.6076C70.4624 46.3007 73.4089 51.7402 73.4089 51.7402M42.506 38.8744L35.53 44.5234M38.5383 46.4857C39.9535 48.1273 41.3796 51.0367 41.3796 51.0367L43.6413 49.2052M38.5383 46.4857L40.2903 45.067L43.6413 49.2052M38.5383 46.4857L35.53 44.5234M73.4089 51.7402L61.9191 61.0445C61.8282 61.1181 61.7393 61.1931 61.6523 61.2696M73.4089 51.7402C73.843 51.3888 74.301 51.0869 74.7763 50.834C77.2236 49.5316 80.1266 49.5261 82.5475 50.7191M61.6523 61.2696C59.1826 63.4398 58.2548 66.7534 59.0203 69.7711M59.0203 69.7711C59.3141 70.9294 59.8575 72.0442 60.659 73.0339L64.3543 77.5973L89.0937 57.5638L85.3983 53.0004C84.5969 52.0107 83.6195 51.2474 82.5475 50.7191M59.0203 69.7711L67.9296 62.5564M82.5475 50.7191L75.2386 56.6378M67.9296 62.5564L75.2386 56.6378M67.9296 62.5564L70.1744 65.3285L77.4833 59.4098L75.2386 56.6378M11.8493 44.3244L20.0876 37.6532M11.8493 44.3244L14.5045 47.6034M14.5045 47.6034L22.7428 40.9321M14.5045 47.6034L17.1839 50.9121M17.1839 50.9121L25.4222 44.2409" stroke="black" stroke-width="3.125" stroke-linecap="round" stroke-linejoin="round"/>
</svg>
