<svg xmlns="http://www.w3.org/2000/svg" xmlns:xlink="http://www.w3.org/1999/xlink" id="e04x2qifmv0xq1" viewBox="0 0 70 70" shape-rendering="geometricPrecision" text-rendering="geometricPrecision">
  <style><![CDATA[#e04x2qifmv0xq3_ts {animation: e04x2qifmv0xq3_ts__ts 2000ms linear infinite normal forwards}@keyframes e04x2qifmv0xq3_ts__ts { 0% {transform: translate(12.441845px,12.441845px) scale(1.033098,1.033098)} 40% {transform: translate(12.441845px,12.441845px) scale(1.033098,1.033098)} 50% {transform: translate(12.441845px,12.441845px) scale(2.795348,2.795348)} 100% {transform: translate(12.441845px,12.441845px) scale(2.795348,2.795348)} }#e04x2qifmv0xq3 {animation: e04x2qifmv0xq3_c_o 2000ms linear infinite normal forwards}@keyframes e04x2qifmv0xq3_c_o { 0% {opacity: 0} 40% {opacity: 0} 50% {opacity: 1} 100% {opacity: 0} }#e04x2qifmv0xq4 {animation: e04x2qifmv0xq4_c_o 2000ms linear infinite normal forwards}@keyframes e04x2qifmv0xq4_c_o { 0% {opacity: 1} 50% {opacity: 0} 100% {opacity: 0} }#e04x2qifmv0xq5_ts {animation: e04x2qifmv0xq5_ts__ts 2000ms linear infinite normal forwards}@keyframes e04x2qifmv0xq5_ts__ts { 0% {transform: translate(12.441845px,12.441845px) scale(1.033098,1.033098)} 90% {transform: translate(12.441845px,12.441845px) scale(1.033098,1.033098)} 100% {transform: translate(12.441845px,12.441845px) scale(2.795348,2.795348)} }#e04x2qifmv0xq5 {animation: e04x2qifmv0xq5_c_o 2000ms linear infinite normal forwards}@keyframes e04x2qifmv0xq5_c_o { 0% {opacity: 0} 90% {opacity: 0} 100% {opacity: 1} }]]></style>
  <g id="e04x2qifmv0xq2" transform="matrix(1 0 0 1 22.50000000000000 22.50000000000000)">
    <g id="e04x2qifmv0xq3_ts" transform="translate(12.441845,12.441845) scale(1.033098,1.033098)">
      <circle id="e04x2qifmv0xq3" r="12.520804" transform="translate(0.020804,0.020804)" opacity="0" fill="#330067" fill-opacity="0.25" stroke="none" stroke-width="1"/>
    </g>
    <circle id="e04x2qifmv0xq4" r="12.520804" transform="matrix(2.79534757271534 0 0 2.79534757271534 12.49999999105827 12.49999999105827)" fill="#330067" fill-opacity="0.25" stroke="none" stroke-width="1"/>
    <g id="e04x2qifmv0xq5_ts" transform="translate(12.441845,12.441845) scale(1.033098,1.033098)">
      <circle id="e04x2qifmv0xq5" r="12.520804" transform="translate(0.020804,0.020804)" opacity="0" fill="#330067" fill-opacity="0.25" stroke="none" stroke-width="1"/>
    </g>
    <circle id="e04x2qifmv0xq6" r="12.500000" transform="matrix(1 0 0 1 12.50000000000000 12.50000000000000)" fill="#330067" stroke="none" stroke-width="1" />
    <path id="e04x2qifmv0xq7" d="M12.500000,5.133300C12.351800,5.133310,12.209600,5.191310,12.103700,5.294890L5.922410,10.350600C5.915270,10.356000,5.908260,10.361500,5.901380,10.367200L5.880350,10.384900L5.880350,10.386000C5.823520,10.439000,5.778180,10.503000,5.747140,10.574300C5.716110,10.645500,5.700050,10.722300,5.699950,10.800000C5.699950,10.950300,5.759650,11.094400,5.865920,11.200700C5.972190,11.306900,6.116330,11.366600,6.266620,11.366600L6.833280,11.366600L6.833280,17.600000C6.833280,18.226100,7.340450,18.733300,7.966620,18.733300L17.033300,18.733300C17.659500,18.733300,18.166600,18.226100,18.166600,17.600000L18.166600,11.366600L18.733300,11.366600C18.883600,11.366600,19.027700,11.306900,19.134000,11.200700C19.240200,11.094400,19.300000,10.950300,19.300000,10.800000C19.300000,10.722100,19.284000,10.645100,19.253000,10.573700C19.221900,10.502200,19.176500,10.438000,19.119500,10.384900L19.110700,10.378300C19.098300,10.367000,19.085300,10.356300,19.072000,10.346200L17.033300,8.678290L17.033300,6.266630C17.033300,5.953830,16.779400,5.699970,16.466600,5.699970L15.900000,5.699970C15.587200,5.699970,15.333300,5.953830,15.333300,6.266630L15.333300,7.288180L12.884000,5.284930C12.779600,5.187890,12.642500,5.133750,12.500000,5.133300ZM10.800000,13.066600L14.200000,13.066600L14.200000,17.600000L10.800000,17.600000L10.800000,13.066600Z" fill="rgb(255,255,255)" stroke="none" stroke-width="1"/>
  </g>
</svg>