<svg width="71" height="87" viewBox="0 0 71 87" fill="none" xmlns="http://www.w3.org/2000/svg">
<path d="M44.3452 28.5833C44.332 28.5726 44.319 28.5616 44.3062 28.5506M44.3452 28.5833L44.3062 28.5506M44.3452 28.5833C46.1896 30.0913 48.0404 32.0683 50.102 33.2605M44.3062 28.5506C43.6004 27.9387 43.5052 26.8723 44.1003 26.1444L46.5289 23.1737C48.569 20.6783 44.2728 17.1452 42.3906 16.2561C40.1853 15.2143 39.3621 16.158 37.9941 17.8313C37.3882 18.5724 36.2963 18.682 35.5552 18.0761L31.4758 14.7411C30.7347 14.1352 30.6251 13.0433 31.2309 12.3021L38.9103 2.9088C39.5162 2.16769 40.6081 2.05806 41.3493 2.66395L45.0283 5.67165C45.9086 6.39134 45.8408 7.7487 45.1674 8.66489C44.2535 9.90818 44.3973 11.5119 45.2494 12.7593C46.6703 14.8394 48.1154 12.1844 51.574 13.0175C55.0326 13.8505 58.5812 17.008 61.6295 20.9828C64.0091 24.0855 64.852 26.2204 66.2032 29.8898C68.2657 35.4904 68.7199 44.9091 68.7333 45.1939C68.7337 45.2029 68.734 45.205 68.7349 45.214C68.793 45.7791 67.8465 46.0009 67.6322 45.4748C66.1453 41.8252 63.7055 36.6412 60.7981 33.5266C59.1974 31.8118 57.9649 30.8548 56.3267 29.5156C55.2969 28.6737 53.6739 30.8494 52.6105 32.5814C52.0791 33.4469 50.9496 33.7507 50.102 33.2605M44.3062 28.5506L29.236 46.9843M50.102 33.2605L35.018 51.7113M35.018 51.7113L35.387 52.013C36.1281 52.6189 36.2377 53.7108 35.6319 54.4519L11.5348 83.9273C10.9289 84.6684 9.83694 84.778 9.09582 84.1722L2.57574 78.8418C1.83462 78.2359 1.725 77.1439 2.33088 76.4028L26.428 46.9274C27.0338 46.1863 28.1258 46.0767 28.8669 46.6826L29.236 46.9843M35.018 51.7113C35.018 51.7113 32.9192 50.7077 31.778 49.7747C30.6368 48.8417 29.236 46.9843 29.236 46.9843" stroke="black" stroke-width="3.47993" stroke-linecap="round" stroke-linejoin="round"/>
</svg>
