<svg width="50" height="50" viewBox="0 0 50 50" fill="none" xmlns="http://www.w3.org/2000/svg">
<path d="M18.75 45.8334H31.25C41.6667 45.8334 45.8333 41.6668 45.8333 31.2501V18.7501C45.8333 8.33342 41.6667 4.16675 31.25 4.16675H18.75C8.33333 4.16675 4.16667 8.33342 4.16667 18.7501V31.2501C4.16667 41.6668 8.33333 45.8334 18.75 45.8334Z" stroke="black" stroke-width="3.125" stroke-linecap="round" stroke-linejoin="round"/>
<path d="M25 32.2916C25.9576 32.2916 26.9057 32.103 27.7904 31.7365C28.6751 31.3701 29.4789 30.833 30.156 30.1559C30.8331 29.4788 31.3702 28.675 31.7366 27.7903C32.1031 26.9057 32.2917 25.9575 32.2917 24.9999C32.2917 24.0424 32.1031 23.0942 31.7366 22.2095C31.3702 21.3249 30.8331 20.521 30.156 19.8439C29.4789 19.1668 28.6751 18.6297 27.7904 18.2633C26.9057 17.8969 25.9576 17.7083 25 17.7083C23.0661 17.7083 21.2115 18.4765 19.844 19.8439C18.4766 21.2114 17.7083 23.066 17.7083 24.9999C17.7083 26.9338 18.4766 28.7885 19.844 30.1559C21.2115 31.5234 23.0661 32.2916 25 32.2916Z" stroke="black" stroke-width="3.125" stroke-linecap="round" stroke-linejoin="round"/>
<path d="M36.7417 14.5833H36.7667" stroke="black" stroke-width="4.16667" stroke-linecap="round" stroke-linejoin="round"/>
</svg>
